<svg width="480" height="480" viewBox="0 0 480 480" fill="none" xmlns="http://www.w3.org/2000/svg">
  <!-- Background -->
  <rect width="480" height="480" fill="#f2f0ef"/>

  <!-- Hexagon outer frame - sage gold -->
  <path
    d="M240 80L120 140L120 260L240 400L360 260L360 140L240 80Z"
    stroke="#b2ac88"
    strokeWidth="20"
    fill="#ffffff"
  />

  <!-- Inner hexagon - forest green -->
  <path
    d="M240 100L140 150L140 250L240 370L340 250L340 150L240 100Z"
    fill="#4b6e48"
    opacity="0.1"
  />

  <!-- Flowing arrow loop - forest green -->
  <path
    d="M240 180 C 195 180, 165 210, 165 255 C 165 300, 195 330, 240 330 C 285 330, 315 300, 315 255 C 315 210, 285 180, 240 180"
    stroke="#4b6e48"
    strokeWidth="32"
    fill="none"
    strokeLinecap="round"
    strokeLinejoin="round"
  />

  <!-- Arrow head - forest green -->
  <path
    d="M277 215 L 240 255 L 203 215"
    stroke="#4b6e48"
    strokeWidth="32"
    fill="none"
    strokeLinecap="round"
    strokeLinejoin="round"
  />

  <!-- Small lock icon at center - sage gold -->
  <circle cx="240" cy="255" r="25" fill="#b2ac88"/>
  <rect x="232" y="248" width="16" height="14" rx="2" fill="#ffffff"/>
  <path d="M234 248 V244 C234 240 236 238 240 238 C244 238 246 240 246 244 V248"
        stroke="#ffffff" strokeWidth="2" fill="none" strokeLinecap="round"/>
</svg>
